<svg width="1600" height="900" viewBox="0 0 1600 900" fill="none" xmlns="http://www.w3.org/2000/svg">
  <rect width="1600" height="900" fill="#0F172A"/>
  <circle cx="1310" cy="180" r="170" fill="#1E293B"/>
  <circle cx="250" cy="720" r="250" fill="#0EA5E9" fill-opacity="0.12"/>
  <circle cx="1180" cy="620" r="220" fill="#10B981" fill-opacity="0.12"/>
  <g opacity="0.95">
    <rect x="910" y="250" width="200" height="320" rx="34" fill="#F8FAFC"/>
    <rect x="950" y="305" width="120" height="200" rx="20" fill="#DBEAFE"/>
    <rect x="986" y="225" width="48" height="72" rx="18" fill="#93C5FD"/>
    <rect x="1145" y="310" width="150" height="220" rx="24" fill="#E2E8F0"/>
    <rect x="1180" y="255" width="80" height="70" rx="20" fill="#CBD5E1"/>
    <rect x="350" y="320" width="120" height="260" rx="60" fill="#F8FAFC"/>
    <rect x="385" y="278" width="50" height="52" rx="18" fill="#A7F3D0"/>
    <rect x="520" y="370" width="220" height="120" rx="60" fill="#E2E8F0"/>
    <rect x="580" y="392" width="46" height="76" rx="23" fill="#60A5FA"/>
    <rect x="642" y="392" width="46" height="76" rx="23" fill="#34D399"/>
    <rect x="790" y="410" width="70" height="70" rx="18" fill="#F8FAFC"/>
    <rect x="815" y="435" width="20" height="20" rx="6" fill="#10B981"/>
  </g>
</svg>
